<?xml version="1.0" encoding="utf-8"?>
<svg viewBox="0 0 16 16" height="16px" width="16px" xmlns="http://www.w3.org/2000/svg">
  <defs>
    <linearGradient y2="5.5410109" x2="19.071495" y1="66.288063" x1="36.917976" gradientUnits="userSpaceOnUse" id="linearGradient2977" gradientTransform="matrix(0.287068, 0, 0, 0.287068, 1.254303, 1.130558)">
      <stop style="stop-color:#d03fcd;stop-opacity:1;" offset="0" id="stop2538-8-7"/>
      <stop style="stop-color:#ff49f8;stop-opacity:1;" offset="1" id="stop2540-2-1"/>
    </linearGradient>
    <linearGradient id="linearGradient3790-88" gradientUnits="userSpaceOnUse" x1="43.93581" y1="53.835983" x2="20.064686" y2="-8.5626707" gradientTransform="matrix(0.266985, 0, 0, 0.266985, 1.082703, 0.888454)">
      <stop style="stop-color:#fc9bff;stop-opacity:1;" offset="0" id="stop2481-5-4"/>
      <stop style="stop-color:#ffffff;stop-opacity:1;" offset="1" id="stop2483-1-5"/>
    </linearGradient>
    <linearGradient id="linearGradient2874-7-17" gradientUnits="userSpaceOnUse" x1="21.993773" y1="33.955299" x2="20.917078" y2="15.814602" gradientTransform="matrix(0.312798, 0, 0, 0.312798, 0.523033, 0.894268)">
      <stop style="stop-color:#fffeff;stop-opacity:0.33333334;" offset="0" id="stop3959-0-9"/>
      <stop style="stop-color:#fffeff;stop-opacity:0.21568628;" offset="1" id="stop3961-9-4"/>
    </linearGradient>
  </defs>
  <path style="fill:url(#linearGradient2977);fill-opacity:1;fill-rule:nonzero;stroke:#b200b0;stroke-width:1.08638;stroke-linecap:butt;stroke-linejoin:miter;stroke-miterlimit:4;stroke-opacity:1;stroke-dasharray:none" id="path1314-1-1" d="M 14.705 8 C 14.705 11.703 11.703 14.705 8 14.705 C 4.297 14.705 1.295 11.703 1.295 8 C 1.295 4.297 4.297 1.295 8 1.295 C 11.703 1.295 14.705 4.297 14.705 8 Z"/>
  <path style="opacity:0.34659089;fill:#d644d9;fill-opacity:0;stroke:url(#linearGradient3790-88);stroke-width:1.16860485;stroke-linecap:butt;stroke-linejoin:miter;stroke-miterlimit:4;stroke-opacity:1;stroke-dasharray:none" id="path3560-1-5" d="M 14.406 8 C 14.406 11.537 11.538 14.405 8 14.405 C 4.463 14.405 1.595 11.537 1.595 8 C 1.595 4.462 4.463 1.594 8 1.594 C 11.538 1.594 14.406 4.462 14.406 8 Z"/>
  <path id="path3955-5-27" d="M 14.089 7.687 C 14.089 11.075 10.85 5.727 8.248 7.808 C 5.706 9.84 1.805 11.621 1.805 8.233 C 1.805 4.766 4.525 1.55 7.913 1.55 C 11.301 1.55 14.089 4.299 14.089 7.687 Z" style="fill:url(#linearGradient2874-7-17);fill-opacity:1;fill-rule:nonzero;stroke:none"/>
  <text style="font-size: 10.4251px; font-style: normal; font-variant-ligatures: normal; font-variant-caps: normal; font-weight: bold; font-stretch: normal; fill: rgb(255, 255, 255); fill-opacity: 1; stroke: none; font-family: &quot;Microsoft Sans Serif&quot;; white-space: pre;" x="7.94" y="11.656" id="text3796"><tspan id="tspan3798" x="7.94" y="11.656" style="font-size: 11px; font-weight: bold; text-align: center; text-anchor: middle; word-spacing: 0px;">Q</tspan></text>
</svg>