<?xml version="1.0" encoding="utf-8"?>
<svg viewBox="0 0 16 16" height="16px" width="16px" xmlns="http://www.w3.org/2000/svg">
  <defs>
    <linearGradient id="linearGradient37621" gradientUnits="userSpaceOnUse" gradientTransform="matrix(0.312798, 0, 0, 0.312798, 0.522637, 0.894594)" x1="21.993773" y1="33.955299" x2="20.917078" y2="15.814602">
      <stop style="stop-color:#fffeff;stop-opacity:0.33333334;" offset="0" id="stop3959-0-2-1"/>
      <stop style="stop-color:#fffeff;stop-opacity:0.21568628;" offset="1" id="stop3961-9-3-2"/>
    </linearGradient>
  </defs>
  <g id="g3704" transform="matrix(1, 0, 0, 1, -15.987731, -31.881102)">
    <path style="fill-rule: nonzero; stroke-linecap: butt; stroke-linejoin: miter; stroke-miterlimit: 4; stroke-opacity: 1; stroke-dasharray: none; fill: rgb(230, 230, 230); stroke: rgb(54, 54, 54); stroke-width: 5.22525px;" id="path1314-1-8-2" d="m 46.857143,23.928572 c 0,12.899794 -10.457349,23.357143 -23.357143,23.357143 -12.899794,0 -23.3571434,-10.457349 -23.3571434,-23.357143 0,-12.899794 10.4573494,-23.3571437 23.3571434,-23.3571437 12.899794,0 23.357143,10.4573497 23.357143,23.3571437 z" transform="matrix(0.28706754,0,0,0.28706754,17.241644,33.011987)"/>
    <path style="opacity: 0.346591; fill-opacity: 0; stroke-width: 1.1686; stroke-linecap: butt; stroke-linejoin: miter; stroke-miterlimit: 4; stroke-opacity: 1; stroke-dasharray: none; stroke: rgb(255, 255, 255);" id="path3560-1-9-7" d="m 49.901535,26.635273 c 0,13.249931 -10.741192,23.991123 -23.991123,23.991123 -13.249932,0 -23.9911234,-10.741192 -23.9911234,-23.991123 0,-13.249931 10.7411914,-23.9911232 23.9911234,-23.9911232 13.249931,0 23.991123,10.7411922 23.991123,23.9911232 z" transform="matrix(0.26698502,0,0,0.26698502,17.070038,32.769883)"/>
  </g>
  <path style="fill: url(#linearGradient37621); fill-rule: nonzero; stroke: none;" d="M 14.089 7.687 C 14.089 11.075 10.85 5.727 8.247 7.808 C 5.706 9.84 1.805 11.621 1.805 8.233 C 1.805 4.766 4.525 1.55 7.912 1.55 C 11.3 1.55 14.089 4.299 14.089 7.687 Z" id="path3955-5-2-7"/>
  <path d="M 10.458 7.284 L 10.312 7.284 L 10.312 6.604 C 10.312 5.348 9.315 4.297 8.068 4.274 C 8.034 4.274 7.965 4.274 7.932 4.274 C 6.685 4.297 5.687 5.348 5.687 6.604 L 5.687 7.284 L 5.543 7.284 C 5.319 7.284 5.136 7.514 5.136 7.799 L 5.136 11.208 C 5.136 11.493 5.319 11.725 5.543 11.725 L 10.458 11.725 C 10.681 11.725 10.864 11.493 10.864 11.208 L 10.864 7.799 C 10.864 7.514 10.681 7.284 10.458 7.284 Z M 9.356 7.284 L 8.068 7.284 L 7.932 7.284 L 6.645 7.284 L 6.645 6.604 C 6.645 5.855 7.253 5.236 8 5.236 C 8.748 5.236 9.356 5.855 9.356 6.604 L 9.356 7.284 L 9.356 7.284 Z" style="fill: rgb(52, 52, 52);"/>
</svg>