<?xml version="1.0" encoding="utf-8"?>
<!-- Generator: Adobe Illustrator 22.0.1, SVG Export Plug-In . SVG Version: 6.00 Build 0)  -->
<svg version="1.1" id="Layer_1" xmlns="http://www.w3.org/2000/svg" xmlns:xlink="http://www.w3.org/1999/xlink" x="0px" y="0px"
	 viewBox="0 0 16 16" style="enable-background:new 0 0 16 16;" xml:space="preserve">
<style type="text/css">
	.st0{fill:#DCE8F3;}
	.st1{fill:#AEC8E0;}
	.st2{fill:#3498DB;}
</style>
<circle class="st0" cx="8" cy="8" r="7.5"/>
<g>
	<path class="st1" d="M8,1c3.86,0,7,3.14,7,7c0,3.86-3.14,7-7,7s-7-3.14-7-7C1,4.14,4.14,1,8,1 M8,0C3.582,0,0,3.582,0,8
		c0,4.418,3.582,8,8,8c4.418,0,8-3.582,8-8C16,3.582,12.418,0,8,0L8,0z"/>
</g>
<path class="st2" d="M8,16c2.068,0,3.952-0.785,5.372-2.073c-0.02-0.021-0.043-0.041-0.072-0.061
	c-1.156-0.767-3.067-0.945-3.378-1.256c-0.311-0.311-0.233-1.3-0.211-1.633c0.082-0.251,0.343-0.492,0.411-0.678
	c0.045-0.122,0.222-0.833,0.233-1.133c0.411,0,0.336-0.316,0.445-0.656c0.108-0.34,0.2-0.311,0.267-0.844
	c0.067-0.533-0.333-0.511-0.333-0.511s0.2-1.666,0.2-2.378c0-1.789-2.268-2-2.933-2c-0.456,0-1.333,0.078-2.178,1.011
	C5.478,3.856,5.089,4.067,5.067,4.778c-0.022,0.711,0.2,2.378,0.2,2.378s-0.4-0.022-0.333,0.511C5,8.2,5.119,8.147,5.2,8.511
	c0.077,0.348,0.033,0.656,0.444,0.656c0.011,0.3,0.189,1.012,0.233,1.133c0.068,0.186,0.33,0.427,0.411,0.678
	c0.022,0.333,0.1,1.322-0.211,1.633C5.767,12.922,3.855,13.1,2.7,13.867c-0.029,0.019-0.052,0.04-0.072,0.061
	C4.048,15.215,5.932,16,8,16z"/>
</svg>
